<?xml version="1.0" encoding="UTF-8"?>
<svg width="232px" height="232px" viewBox="0 0 232 232" version="1.1" xmlns="http://www.w3.org/2000/svg" xmlns:xlink="http://www.w3.org/1999/xlink">
    <!-- Generator: Sketch 49.1 (51147) - http://www.bohemiancoding.com/sketch -->
    <title>Slice</title>
    <desc>Created with Sketch.</desc>
    <defs></defs>
    <g id="Page-1" stroke="none" stroke-width="1" fill="none" fill-rule="evenodd">
        <g id="rock-paper-scissors" transform="translate(-54.000000, -172.000000)">
            <g id="imagebot_10" transform="translate(107.236640, 87.308370) rotate(112.264648) translate(-107.236640, -87.308370) translate(51.222264, -5.023020)" fill="#FFFFFF" fill-rule="nonzero" stroke="#000000" stroke-linecap="round" stroke-linejoin="round" stroke-width="4.99992942">
                <path d="M0.43580416,109.566583 C-0.619235854,128.89462 17.5392708,159.179316 39.0475603,166.31961 C50.1544109,169.889757 75.1503648,170.997734 83.9747835,164.472982 C99.0900475,153.393216 106.722776,138.989519 110.182125,121.261892 C111.4009,114.983357 111.708671,107.843063 111.351656,101.933854 C109.764541,80.3110739 93.0971248,67.6038125 85.9839145,62.625304 C85.759857,48.5293785 87.1866848,31.5404028 89.4506505,15.5732277 C92.8373658,-8.30982508 59.4848057,-2.28981847 56.541281,20.1159321 C55.1636966,30.604778 52.7790846,39.2100635 50.2516667,62.6991691 C46.3799037,50.0436133 39.8723874,31.8727958 37.6884422,19.3157267 C34.087518,-1.40343713 4.37897005,11.0182125 9.3143906,36.2554591 C12.6764843,53.4414084 18.018163,66.0969643 21.3039293,82.4703974 C17.8495043,85.1910957 1.53762541,89.4998939 0.43580416,109.566583 Z" id="imagebot_17"></path>
            </g>
            <g id="g5439" transform="translate(161.175625, 283.132745) rotate(50.966785) translate(-161.175625, -283.132745) translate(81.675728, 190.632864)">
                <g id="g3915-6-1-6-3-8-9-4" transform="translate(0.094500, 0.005200)">
                    <path d="M116.303098,164.844077 C120.891156,172.386156 115.707505,177.215385 108.719532,180.783109 C98.8335654,185.829135 74.3743484,183.370754 66.000417,178.304169 C58.3150389,173.65431 54.9047732,166.794014 58.5642133,160.842269" id="path3894-6-1-0-5-5-2-9" stroke="#000000" stroke-width="4.99998309" fill="#FFFFFF" fill-rule="nonzero" stroke-linecap="round" stroke-linejoin="round"></path>
                    <path d="M1.71861338,115.230811 C-3.26561165,125.100897 13.8043065,131.22278 32.5170024,134.679704 C39.7831914,136.022217 54.0698423,160.472447 71.0565382,166.31524 C82.1077393,170.116872 107.15973,171.050537 115.984244,164.553538 C131.093514,153.428717 138.734942,139.087036 142.188173,121.356757 C143.412451,115.071877 143.723722,107.893465 143.36679,102.02605 C142.194514,82.7581286 159.310746,35.9579224 157.994701,31.0199867 C154.340432,17.2993949 138.453476,25.3393293 135.141822,34.1600263 C133.5377,38.4324302 118.083722,68.394411 117.992621,62.6587235 C117.768364,48.5688021 119.195158,31.5821062 121.458901,15.6184531 C124.846392,-8.26978048 91.4927349,-2.24847814 88.5504097,20.1517268 C87.1718257,30.6454866 84.7875574,39.2448321 82.2607279,62.7354209 C78.3878154,50.0846536 71.881091,31.913641 69.6973686,19.3515128 C66.0957902,-1.36294905 36.3875389,11.054402 41.3230124,36.2889648 C44.6844035,53.4738675 54.127667,83.7748928 52.6507182,113.635185 C41.0478619,103.960598 16.7518885,85.4578043 1.71771468,115.228103 L1.71861338,115.230811 Z" id="path3112-2-8-6-8-2-9-8" stroke="#000000" stroke-width="4.99998309" fill="#FFFFFF" fill-rule="nonzero" stroke-linecap="round" stroke-linejoin="round"></path>
                    <path d="M79.4994111,62.2197138 C83.2381339,77.8066508 88.7224311,84.951946 90.763346,88.5898418 C88.1529249,78.8804148 87.2326789,76.4874057 85.2307898,65.9191645 C84.8913759,64.1274239 84.7916323,61.9819887 85.0874776,59.3638117 L79.4994111,62.2197138 Z" id="path3882-6-1-33-9-9-7-9" fill="#000000" fill-rule="nonzero"></path>
                    <path d="M115.495498,62.7490861 C115.651527,72.1460603 118.094962,83.4401571 121.61578,90.4906577 C121.454408,85.3620248 121.100467,76.5509304 120.702724,68.7605396 C120.594855,66.6474823 121.015004,64.7343554 122.747455,62.2712968 C120.375621,62.9378135 117.93226,62.744728 115.495547,62.7494554 L115.495498,62.7490861 Z" id="path3884-6-1-2-9-6-6-0" fill="#000000" fill-rule="nonzero"></path>
                    <path d="M104.202632,155.48773 C109.172453,143.57279 109.097479,140.142088 110.598311,134.060462" id="path3886-8-5-4-3-7-0-8" stroke="#000000" stroke-width="4.99998309" stroke-linecap="round" stroke-linejoin="round"></path>
                    <path d="M92.6524665,156.349498 C94.7357313,142.222644 94.4057969,135.233698 94.9367696,125.69761" id="path3888-4-4-9-8-4-7-4" stroke="#000000" stroke-width="4.99998309" stroke-linecap="round" stroke-linejoin="round"></path>
                    <path d="M78.8407734,156.965048 C78.9603131,147.140144 78.1035055,142.494717 77.5493512,136.24443" id="path3890-1-8-5-1-8-9-7" stroke="#000000" stroke-width="4.99998309" stroke-linecap="round" stroke-linejoin="round"></path>
                </g>
            </g>
        </g>
    </g>
</svg>