<?xml version="1.0" encoding="UTF-8"?>
<svg width="232px" height="232px" viewBox="0 0 232 232" version="1.1" xmlns="http://www.w3.org/2000/svg" xmlns:xlink="http://www.w3.org/1999/xlink">
    <!-- Generator: Sketch 49.1 (51147) - http://www.bohemiancoding.com/sketch -->
    <title>Slice</title>
    <desc>Created with Sketch.</desc>
    <defs></defs>
    <g id="Page-1" stroke="none" stroke-width="1" fill="none" fill-rule="evenodd">
        <g id="rock-paper-scissors" transform="translate(-282.000000, 0.000000)">
            <g id="g5439" transform="translate(161.175625, 283.132745) rotate(50.966785) translate(-161.175625, -283.132745) translate(81.675728, 190.632864)" fill="#FFFFFF" fill-rule="nonzero" stroke="#000000" stroke-linecap="round" stroke-linejoin="round" stroke-width="4.99998309">
                <g id="g3915-6-1-6-3-8-9-4" transform="translate(0.094500, 0.005200)">
                    <path d="M1.71861338,115.230811 C-3.26561165,125.100897 13.8043065,131.22278 32.5170024,134.679704 C39.7831914,136.022217 54.0698423,160.472447 71.0565382,166.31524 C82.1077393,170.116872 107.15973,171.050537 115.984244,164.553538 C131.093514,153.428717 138.734942,139.087036 142.188173,121.356757 C143.412451,115.071877 143.723722,107.893465 143.36679,102.02605 C142.194514,82.7581286 159.310746,35.9579224 157.994701,31.0199867 C154.340432,17.2993949 138.453476,25.3393293 135.141822,34.1600263 C133.5377,38.4324302 118.083722,68.394411 117.992621,62.6587235 C117.768364,48.5688021 119.195158,31.5821062 121.458901,15.6184531 C124.846392,-8.26978048 91.4927349,-2.24847814 88.5504097,20.1517268 C87.1718257,30.6454866 84.7875574,39.2448321 82.2607279,62.7354209 C78.3878154,50.0846536 71.881091,31.913641 69.6973686,19.3515128 C66.0957902,-1.36294905 36.3875389,11.054402 41.3230124,36.2889648 C44.6844035,53.4738675 54.127667,83.7748928 52.6507182,113.635185 C41.0478619,103.960598 16.7518885,85.4578043 1.71771468,115.228103 L1.71861338,115.230811 Z" id="path3112-2-8-6-8-2-9-8"></path>
                </g>
            </g>
            <g id="g32290" transform="translate(396.730005, 119.036300) scale(-1, 1) rotate(99.119230) translate(-396.730005, -119.036300) translate(340.716785, 51.328013)">
                <path d="M84.2918936,115.596513 C88.8800534,123.105977 83.6960607,127.90711 76.7085654,131.477184 C66.8231555,136.524529 42.3644599,134.062409 33.9907914,129.015064 C26.3052852,124.337037 22.8952496,117.566208 26.5539593,111.534015" id="path32292" stroke="#000000" stroke-width="4.99982616" fill="#FFFFFF" fill-rule="nonzero" stroke-linecap="round" stroke-linejoin="round"></path>
                <path d="M0.435795159,60.3219288 C-0.619223065,79.6495672 17.5389086,109.933638 39.0467538,117.073784 C50.1533751,120.643858 75.1488127,121.751811 83.9730492,115.227195 C99.088001,104.147657 106.720572,89.7442574 110.17985,72.0169967 C111.398599,65.7385918 111.706364,58.5984451 111.349356,52.6893582 C110.088382,28.5421208 102.463198,10.5784966 85.9821387,13.3816197 C80.9487046,-6.40643505 50.3971249,-1.66439281 50.2506288,13.4554833 C34.6592568,-4.07726996 11.9794426,12.2775807 21.3034894,33.2263032 C17.8491356,35.9469453 1.53759366,40.2556545 0.435795159,60.3219288 Z" id="path32294" stroke="#000000" stroke-width="4.99982616" fill="#FFFFFF" fill-rule="nonzero" stroke-linecap="round" stroke-linejoin="round"></path>
                <path d="M52.8124642,14.169498 C57.6496674,29.4494119 55.7119793,35.8078356 55.8686932,40.0242153 C53.0746799,30.3253109 52.6250969,27.7938827 48.8909233,17.712488 C48.2537268,15.9981142 47.4167292,14.2631816 45.5456415,12.3475295 L53.0767727,11.2384801 C53.1286989,10.8682142 52.6366443,13.0416133 52.8124396,14.1688948 L52.8124642,14.169498 Z" id="path32296" fill="#000000" fill-rule="nonzero"></path>
                <path d="M87.9776866,11.4734771 C89.8384334,20.6941148 91.0809421,32.2414554 89.1482029,39.872795 C88.1995236,34.7875332 84.8733478,21.8032996 83.5984623,14.1177935 C83.5826432,14.1202556 83.6138013,14.1320738 87.9777112,11.4729847 L87.9776866,11.4734771 Z" id="path32298" fill="#000000" fill-rule="nonzero"></path>
                <path d="M72.1918071,106.240458 C77.1603644,94.2991785 77.0865008,90.8522112 78.5871627,84.8200183" id="path32300" stroke="#000000" stroke-width="4.99982616" stroke-linecap="round" stroke-linejoin="round"></path>
                <path d="M60.6420044,107.1022 C62.7261886,92.9450128 62.3962645,85.9279721 62.9268513,76.4488118" id="path32302" stroke="#000000" stroke-width="4.99982616" stroke-linecap="round" stroke-linejoin="round"></path>
                <path d="M46.8307448,107.71773 C46.9513886,97.8692519 46.094571,93.1912247 45.5405941,87.0359259" id="path32304" stroke="#000000" stroke-width="4.99982616" stroke-linecap="round" stroke-linejoin="round"></path>
                <path d="M18.4966731,32.0321753 C23.2879577,52.6893582 17.0181703,60.8143527 12.8498019,71.2783608 C19.1836044,60.4450348 27.7948675,56.7518555 23.7336013,32.6107734 L18.4966731,32.0321753 Z" id="path32306" fill="#000000" fill-rule="nonzero"></path>
            </g>
        </g>
    </g>
</svg>