<?xml version="1.0" encoding="UTF-8"?>
<svg width="232px" height="232px" viewBox="0 0 232 232" version="1.1" xmlns="http://www.w3.org/2000/svg" xmlns:xlink="http://www.w3.org/1999/xlink">
    <!-- Generator: Sketch 49.1 (51147) - http://www.bohemiancoding.com/sketch -->
    <title>Slice</title>
    <desc>Created with Sketch.</desc>
    <defs></defs>
    <g id="Page-1" stroke="none" stroke-width="1" fill="none" fill-rule="evenodd">
        <g id="rock-paper-scissors" transform="translate(11.000000, 30.000000)">
            <g id="imagebot_10" transform="translate(107.236640, 87.308370) rotate(112.264648) translate(-107.236640, -87.308370) translate(51.222264, -5.023020)">
                <path d="M84.2936346,164.842308 C88.8818891,172.351928 83.6977893,177.15316 76.7101497,180.723307 C66.8245356,185.770756 42.3653349,183.308586 33.9914934,178.261137 C26.3058285,173.583013 22.8957225,166.812044 26.5545077,160.779727" id="imagebot_18" stroke="#000000" stroke-width="4.99992942" fill="#FFFFFF" fill-rule="nonzero" stroke-linecap="round" stroke-linejoin="round"></path>
                <path d="M0.43580416,109.566583 C-0.619235854,128.89462 17.5392708,159.179316 39.0475603,166.31961 C50.1544109,169.889757 75.1503648,170.997734 83.9747835,164.472982 C99.0900475,153.393216 106.722776,138.989519 110.182125,121.261892 C111.4009,114.983357 111.708671,107.843063 111.351656,101.933854 C109.764541,80.3110739 93.0971248,67.6038125 85.9839145,62.625304 C85.759857,48.5293785 87.1866848,31.5404028 89.4506505,15.5732277 C92.8373658,-8.30982508 59.4848057,-2.28981847 56.541281,20.1159321 C55.1636966,30.604778 52.7790846,39.2100635 50.2516667,62.6991691 C46.3799037,50.0436133 39.8723874,31.8727958 37.6884422,19.3157267 C34.087518,-1.40343713 4.37897005,11.0182125 9.3143906,36.2554591 C12.6764843,53.4414084 18.018163,66.0969643 21.3039293,82.4703974 C17.8495043,85.1910957 1.53762541,89.4998939 0.43580416,109.566583 Z" id="imagebot_17" stroke="#000000" stroke-width="4.99992942" fill="#FFFFFF" fill-rule="nonzero" stroke-linecap="round" stroke-linejoin="round"></path>
                <path d="M47.4903426,62.2190459 C51.2291483,77.8045845 56.7124018,84.9448786 58.7535411,88.6381342 C56.1436404,78.8879395 55.2227887,76.4873233 53.2210442,65.9246123 C52.8824957,64.1272279 52.7827778,61.9851397 53.0782383,59.3629282 L47.4903426,62.2190459 Z" id="imagebot_16" fill="#000000" fill-rule="nonzero"></path>
                <path d="M83.4860427,62.7484125 C83.6411594,72.1539034 86.0848635,83.4429547 89.6057672,90.484762 C89.2289443,80.300979 88.9213454,72.2610078 88.336149,62.5686741 C88.3102962,62.5686741 85.921991,62.7533369 83.4856733,62.7533369 L83.4860427,62.7484125 Z" id="imagebot_15" fill="#000000" fill-rule="nonzero"></path>
                <path d="M72.1932982,155.48606 C77.161958,143.544534 77.0880929,140.097495 78.5887858,134.065178" id="imagebot_14" stroke="#000000" stroke-width="4.99992942" stroke-linecap="round" stroke-linejoin="round"></path>
                <path d="M60.6432568,156.34782 C62.7274841,142.19034 62.3975532,135.173155 62.928151,125.693799" id="imagebot_13" stroke="#000000" stroke-width="4.99992942" stroke-linecap="round" stroke-linejoin="round"></path>
                <path d="M46.831712,156.963363 C46.9523583,147.114681 46.0955231,142.436557 45.5415347,136.281131" id="imagebot_12" stroke="#000000" stroke-width="4.99992942" stroke-linecap="round" stroke-linejoin="round"></path>
                <path d="M18.4970551,81.2762447 C23.2884387,101.933854 17.0185218,110.059017 12.8500673,120.523241 C19.1840006,109.689691 27.7954416,105.996436 23.7340915,81.8548548 L18.4970551,81.2762447 Z" id="imagebot_11" fill="#000000" fill-rule="nonzero"></path>
            </g>
            <g id="g5439" transform="translate(161.175625, 283.132745) rotate(50.966785) translate(-161.175625, -283.132745) translate(81.675728, 190.632864)" fill="#FFFFFF" fill-rule="nonzero" stroke="#000000" stroke-linecap="round" stroke-linejoin="round" stroke-width="4.99998309">
                <g id="g3915-6-1-6-3-8-9-4" transform="translate(0.094500, 0.005200)">
                    <path d="M1.71861338,115.230811 C-3.26561165,125.100897 13.8043065,131.22278 32.5170024,134.679704 C39.7831914,136.022217 54.0698423,160.472447 71.0565382,166.31524 C82.1077393,170.116872 107.15973,171.050537 115.984244,164.553538 C131.093514,153.428717 138.734942,139.087036 142.188173,121.356757 C143.412451,115.071877 143.723722,107.893465 143.36679,102.02605 C142.194514,82.7581286 159.310746,35.9579224 157.994701,31.0199867 C154.340432,17.2993949 138.453476,25.3393293 135.141822,34.1600263 C133.5377,38.4324302 118.083722,68.394411 117.992621,62.6587235 C117.768364,48.5688021 119.195158,31.5821062 121.458901,15.6184531 C124.846392,-8.26978048 91.4927349,-2.24847814 88.5504097,20.1517268 C87.1718257,30.6454866 84.7875574,39.2448321 82.2607279,62.7354209 C78.3878154,50.0846536 71.881091,31.913641 69.6973686,19.3515128 C66.0957902,-1.36294905 36.3875389,11.054402 41.3230124,36.2889648 C44.6844035,53.4738675 54.127667,83.7748928 52.6507182,113.635185 C41.0478619,103.960598 16.7518885,85.4578043 1.71771468,115.228103 L1.71861338,115.230811 Z" id="path3112-2-8-6-8-2-9-8"></path>
                </g>
            </g>
        </g>
    </g>
</svg>